<svg xmlns="http://www.w3.org/2000/svg" width="67" height="62" viewBox="0 0 67 62">
    <path fill="#000" fill-rule="nonzero" d="M.9 35.3c.4 3 2.9 5.3 6 5.2l11.2-.9c.1 0-.1 0 0 0l1.8.2c.6.1.9.7.7 1.2-2.9 6.4-5.2 12.3-3.2 16.4 1 1.9 2.8 3.3 5.5 3.9.9.2 1.7-.3 2-1.1 0-.1 1.9-4.7 6.7-11.9l.3-.3c4.2-2.6 8.1-5.2 10.2-12.5.1-.4.5-.6.8-.6h4.2c.5 0 .9.4.9.9v2.5c0 .5.4.9.9.9h17.2c.5 0 .9-.4.9-.9v-34c0-.5-.4-.9-.9-.9H48.8c-.5 0-.9.4-.9.9v1.6c0 .5-.4.9-.9.9h-7.3c-.2 0-.4-.1-.5-.2L31.1.4C30.8.1 30.4 0 30 0H9.2C6.6 0 4.5 1.7 4 4.1l-1.4 6-2.2 9c0 .1.1-.2 0 0L0 27.8c0 .1 0-.1 0 0l.9 7.5zM63.3 7.9v27c0 .5-.4.9-.9.9H52.2c-.5 0-.9-.4-.9-.9l-.2-27c0-.5.4-.9.9-.9h10.4c.5 0 .9.4.9.9zM6.5 12.4l7.4-.1c.5 0 .9-.4.9-.9V9.6c0-.5-.4-.9-.9-.9l-6.1.1c-.6 0-1-.5-.9-1.1l.6-2.9c.2-.8.9-1.4 1.8-1.4h19.8c.2 0 .4.1.5.2l8.2 6.2c.3.3.7.4 1.1.4H47c.5 0 .9.4.9.9v19.4c0 .5-.4.9-.9.9h-3.7c-1 0-1.9 0-2.6.1-.8.1-1.4.6-1.6 1.4-1.7 7.7-5 9.7-9.6 12.5l-.5.5c-3.2 4.7-5.2 8.4-6.3 10.7-.2.5-.9.7-1.4.3-.3-.3-.6-.6-.8-1-1.4-3 1.2-9 3.8-14.7.2-.4.6-.6 1-.5.5.1 1-.3 1.1-.8l.3-1.7c.1-.5-.3-.9-.7-1L18.4 36h-.8L6.5 37c-1.1 0-2-.9-2.2-2l-.4-4.3c-.1-.5.3-1 .9-1l9.1-.1c.5 0 .9-.4.9-.9v-1.8c0-.5-.4-.9-.9-.9l-9.3.1c-.5 0-.9-.4-.9-.9l.2-3.3c0-.5.4-.8.9-.8l9.1-.1c.5 0 .9-.4.9-.9v-1.8c0-.5-.4-.9-.9-.9l-8.3.3c-.6 0-1-.5-.9-1.1l.9-3.5c.1-.4.5-.7.9-.7z"/>
</svg>
