<svg xmlns="http://www.w3.org/2000/svg" width="63" height="73" viewBox="0 0 63 73">
    <g fill="#212121" fill-rule="nonzero">
        <path d="M61.82 47.274c0-.085-.085-.17-.085-.254 0-.085-3.383-5.92-6.343-12.093-2.79-5.836-3.044-12.01-3.044-12.094 0-.169-.085-.422-.085-.592a2.533 2.533 0 0 0-1.607-1.606 2.696 2.696 0 0 0-2.283 0c-2.96 1.184-4.398 3.467-4.905 5.835-.17-1.353-.17-2.114-.17-2.199 0-.17-.084-.423-.084-.592a2.533 2.533 0 0 0-1.607-1.607 2.696 2.696 0 0 0-2.283 0 8.65 8.65 0 0 0-2.537 1.607l-7.95-7.95c-1.944-1.944-4.989-2.198-7.188-.676-.76.592-1.353 1.353-1.776 2.114l-.084-.084c-1.184-1.184-2.875-1.776-4.482-1.607-1.015.085-1.945.423-2.706 1.015-.761.592-1.353 1.353-1.776 2.114a5.577 5.577 0 0 0-3.89-1.607 5.577 5.577 0 0 0-3.89 1.607 5.577 5.577 0 0 0-1.607 3.89c0 1.438.592 2.875 1.606 3.89l1.269 1.269c-.846.423-1.607 1.015-2.114 1.776-1.607 2.114-1.353 5.243.592 7.188l1.015 1.015c-.846.423-1.607 1.015-2.115 1.776-1.522 2.114-1.268 5.243.677 7.188l24.27 24.271a6.651 6.651 0 0 0 4.737 1.945c1.776 0 3.382-.676 4.736-1.945l.676-.677c1.1.762 2.453 1.1 3.721 1.1 1.691 0 3.383-.677 4.736-1.945l15.391-15.392c1.523-1.776 2.115-4.397 1.184-6.68zm-3.806 4.228L42.622 66.893c-1.268 1.269-3.382 1.269-4.65 0l-.255-.253-23.932-23.933c-.762-.761-.93-1.945-.339-2.79.085-.17.254-.255.339-.34l.084-.084c.085-.084.17-.169.254-.169l.084-.084c.085-.085.254-.085.339-.17.169 0 .253-.084.423-.084h.507c.085 0 .085 0 .17.084l10.993 10.994 2.368-2.368L18.013 36.45l-3.721-3.721c-.761-.761-.93-1.945-.338-2.79.676-.931 1.776-1.016 2.537-.677l13.023 13.023 2.368-2.368-13.615-13.7-.085.085-3.72-3.721c-.847-.846-.847-2.2 0-2.96.084-.085.168-.17.337-.254.085-.084.17-.084.254-.169l.085-.085c.253-.084.507-.169.76-.169.508 0 1.1.17 1.438.592l2.284 2.284-.085.084L35.52 37.886l2.537-2.367-15.053-15.054c-.339-.76-.254-1.945.676-2.537.846-.592 2.03-.422 2.79.339l9.219 9.218 6.004 6.004 2.875 2.875c.592.592 1.438.677 2.115.254.676-.423.93-1.184.76-1.945-.591-1.945-2.198-8.203 1.607-10.487.17 2.2.846 7.273 3.299 12.347 2.79 5.751 5.92 11.248 6.427 12.178.254.93 0 2.03-.761 2.791z"/>
        <path fill-opacity=".8" d="M25.624 10.74l1.691-8.372a.934.934 0 0 0 0-.677C27.146.761 26.216.17 25.285.338c-.93.17-1.521 1.1-1.352 2.03l1.691 8.372zM15.73 6.173l6.765 5.244-4.228-7.442c-.085-.17-.254-.339-.423-.508-.761-.592-1.86-.423-2.453.339-.592.76-.422 1.86.339 2.367zM36.026 5.666c.507-.846.17-1.86-.677-2.368-.845-.507-1.86-.169-2.367.677l-4.229 7.442 6.766-5.244a.762.762 0 0 0 .507-.507z"/>
    </g>
</svg>
