<?xml version="1.0" encoding="UTF-8"?>
<svg width="42px" height="42px" viewBox="0 0 42 42" version="1.1" xmlns="http://www.w3.org/2000/svg" xmlns:xlink="http://www.w3.org/1999/xlink">
    <!-- Generator: Sketch 45.2 (43514) - http://www.bohemiancoding.com/sketch -->
    <title>Group 7</title>
    <desc>Created with Sketch.</desc>
    <defs></defs>
    <g id="Home-Page" stroke="none" stroke-width="1" fill="none" fill-rule="evenodd">
        <g id="Mobile-Portrait-Copy-3" transform="translate(-270.000000, -2892.000000)">
            <g id="Group-7" transform="translate(271.000000, 2893.000000)">
                <g id="Group-5-Copy-2" stroke="#212121" stroke-width="1.5">
                    <path d="M20.0002113,39.9995775 C8.95433467,39.9995775 0,31.0452428 0,19.9997887 C0,8.95433467 8.95433467,0 20.0002113,0 C31.0456653,0 40,8.95433467 40,19.9997887 C40,31.0452428 31.0456653,39.9995775 20.0002113,39.9995775 Z" id="Fill-17-Copy-3" transform="translate(20.000000, 19.999789) scale(-1, 1) translate(-20.000000, -19.999789) "></path>
                </g>
                <g id="Group-6" transform="translate(10.000000, 11.000000)" fill-rule="nonzero" fill="#212121">
                    <path d="M4.17103122,12.4154337 C4.05298317,12.4154337 3.97428447,12.3759927 3.89558577,12.2971106 L0.118048053,8.51077033 C0.0393493512,8.43188825 0,8.27412407 0,8.15580094 C0.0393493512,8.0374778 0.118048053,7.91915467 0.236096107,7.87971363 L18.3367976,0.0309458255 C18.5335444,-0.0479362629 18.7302912,0.0309458255 18.8483392,0.188710002 C18.9663873,0.346474179 18.9270379,0.583120445 18.7696405,0.701443577 L4.40712733,12.3365516 C4.36777798,12.3759927 4.24972993,12.4154337 4.17103122,12.4154337 Z M1.06243248,8.35300616 L4.17103122,11.4688487 L15.9758366,1.84523386 L1.06243248,8.35300616 Z" id="Shape-Copy-7"></path>
                    <path d="M10.7712704,18.9216175 C10.6532223,18.9216175 10.5745236,18.8821764 10.4958249,18.8032943 L6.71828719,15.0169541 C6.56088979,14.8591899 6.56088979,14.6619847 6.67893784,14.5042205 L18.2869964,0.14768041 C18.4050445,-0.0100837671 18.6411406,-0.0495248113 18.798538,0.0687983214 C18.9559354,0.187121454 19.0346341,0.384326675 18.9559354,0.581531896 L11.1254145,18.6849712 C11.0860652,18.8032943 10.9680171,18.8821764 10.8499691,18.9216175 C10.8106197,18.9216175 10.8106197,18.9216175 10.7712704,18.9216175 Z M7.50527422,14.7014257 L10.613873,17.8172682 L17.0671665,2.82967142 L7.50527422,14.7014257 Z" id="Shape-Copy-8"></path>
                    <path d="M3.69088934,15.939642 C3.57284129,15.939642 3.49414259,15.900201 3.41544389,15.8213189 C3.33674518,15.7424368 3.29739583,15.5846726 3.29739583,15.4663495 L4.12373221,11.9560966 C4.16308156,11.8772145 4.20243091,11.7983324 4.24178026,11.7194503 L18.5649441,0.0843422578 C18.7223415,-0.0339808748 18.9584376,-0.0339808748 19.0764856,0.123783302 C19.1945337,0.281547479 19.2338831,0.4787527 19.115835,0.636516877 L7.50777641,14.993057 C7.46842706,15.0719391 7.38972835,15.1113801 7.2716803,15.1113801 L3.76958805,15.939642 C3.73023869,15.939642 3.69088934,15.939642 3.69088934,15.939642 Z M4.83202053,12.2716249 L4.20243091,15.032498 L6.95688549,14.4014413 L16.1252843,3.08186162 L4.83202053,12.2716249 Z" id="Shape-Copy-9"></path>
                </g>
            </g>
        </g>
    </g>
</svg>