<?xml version="1.0" encoding="UTF-8"?>
<svg width="785px" height="164px" viewBox="0 0 785 164" version="1.1" xmlns="http://www.w3.org/2000/svg" xmlns:xlink="http://www.w3.org/1999/xlink">
    <!-- Generator: Sketch 45.2 (43514) - http://www.bohemiancoding.com/sketch -->
    <title>Group 37</title>
    <desc>Created with Sketch.</desc>
    <defs></defs>
    <g id="Home-Page" stroke="none" stroke-width="1" fill="none" fill-rule="evenodd">
        <g id="Group-37" transform="translate(2.000000, 1.000000)">
            <g id="Group-36">
                <path d="M516.5,26.5 L516.5,42.5312195" id="Line-Copy" stroke="#FFFFFF" stroke-linecap="square"></path>
                <path d="M383,89.3795521 C386.87801,84.0897186 390.783107,78.375024 394.666387,72.2094652 C394.666387,72.2094652 441.578055,-6.29577617 500.297423,0.405890775 C500.297423,0.405890775 534.444012,0.405890775 563.484568,38.3820035 C563.484568,38.3820035 592.844252,76.0389891 622.203936,114.015102 C622.203936,114.015102 681.24243,184.861295 741.557433,150.076453 C741.557433,150.076453 773.461265,132.068917 779.291343,94.0112998" id="Stroke-3" stroke="#939597" stroke-width="2" stroke-dasharray="5,7"></path>
                <path d="M775.854643,56.3848328 C756.512994,6.21168629 709.606431,2.21238675 709.606431,2.21238675 C663.013889,-1.29801022 629.824682,39.8693724 629.824682,39.8693724 C597.911982,72.4203262 573.020076,112.311201 573.020076,112.311201 C532.490948,165.924536 496.429597,160.499377 496.429597,160.499377 C446.645785,159.541996 415.052212,114.225963 415.052212,114.225963 C404.049987,98.8807538 404.990278,102.323369 396,89.8554687" id="Stroke-9" stroke="#231F20" stroke-width="2" stroke-dasharray="5,7"></path>
                <path d="M700.422229,142.841905 C667.051757,142.841905 640,115.790148 640,82.4209527 C640,49.0517573 667.051757,22 700.422229,22 C733.791425,22 760.843182,49.0517573 760.843182,82.4209527 C760.843182,115.790148 733.791425,142.841905 700.422229,142.841905 Z" id="Fill-17" fill-opacity="0.7" fill="#212121"></path>
                <path d="M689.659957,89.8005227 C689.443166,89.8005227 689.298639,89.7280906 689.154111,89.5832263 L682.216791,82.6297409 C682.072264,82.4848766 682,82.1951481 682,81.9778517 C682.072264,81.7605553 682.216791,81.5432588 682.433582,81.4708267 L715.674907,67.056831 C716.036225,66.9119667 716.397544,67.056831 716.614335,67.3465595 C716.831127,67.6362881 716.758863,68.0708809 716.469808,68.2881773 L690.09354,89.6556584 C690.021276,89.7280906 689.804485,89.8005227 689.659957,89.8005227 Z M683.951121,82.3400124 L689.659957,88.0621514 L711.339082,70.3887094 L683.951121,82.3400124 Z" id="Shape" fill="#FFFFFF" fill-rule="nonzero"></path>
                <path d="M701.669961,101.748908 C701.45317,101.748908 701.308643,101.676476 701.164115,101.531612 L694.226795,94.5781266 C693.93774,94.2883981 693.93774,93.9262374 694.154532,93.6365088 L715.472337,67.2712101 C715.689129,66.9814815 716.122711,66.9090494 716.411766,67.1263458 C716.700821,67.3436422 716.845349,67.7058029 716.700821,68.0679636 L702.320335,101.314316 C702.248071,101.531612 702.03128,101.676476 701.814489,101.748908 C701.742225,101.748908 701.742225,101.748908 701.669961,101.748908 Z M695.67207,93.9986695 L701.380906,99.7208085 L713.232161,72.1965955 L695.67207,93.9986695 Z" id="Shape" fill="#FFFFFF" fill-rule="nonzero"></path>
                <path d="M688.722637,96.2726117 C688.505846,96.2726117 688.361319,96.2001796 688.216791,96.0553153 C688.072264,95.910451 688,95.6207225 688,95.4034261 L689.517539,88.9569656 C689.589802,88.8121014 689.662066,88.6672371 689.73433,88.5223728 L716.038334,67.1548917 C716.327389,66.9375953 716.760972,66.9375953 716.977763,67.2273238 C717.194554,67.5170524 717.266818,67.8792131 717.050027,68.1689416 L695.732221,94.5342404 C695.659957,94.6791047 695.51543,94.7515368 695.298639,94.7515368 L688.867165,96.2726117 C688.794901,96.2726117 688.722637,96.2726117 688.722637,96.2726117 Z M690.818286,89.5364228 L689.662066,94.6066725 L694.720529,93.4477583 L711.557982,72.6597343 L690.818286,89.5364228 Z" id="Shape" fill="#FFFFFF" fill-rule="nonzero"></path>
                <path d="M493.422229,140.841905 C460.051757,140.841905 433,113.790148 433,80.4209527 C433,47.0517573 460.051757,20 493.422229,20 C526.791425,20 553.843182,47.0517573 553.843182,80.4209527 C553.843182,113.790148 526.791425,140.841905 493.422229,140.841905 Z" id="Fill-15" fill-opacity="0.7" fill="#212121"></path>
                <path d="M502.757257,59.2183417 L504.197294,56.7964612 C504.524575,56.2073552 505.244594,56.0109865 505.8337,56.3382676 C506.422806,56.6655488 506.619175,57.3855673 506.291894,57.9746733 L504.851856,60.3965538 C504.655488,60.7892912 504.197294,60.9856598 503.804557,60.9856598 C503.608188,60.9856598 503.411819,60.9202036 503.215451,60.8547474 C502.626345,60.5274662 502.429976,59.8074477 502.757257,59.2183417 Z M481.549439,60.3965538 C481.745808,60.7892912 482.204002,60.9856598 482.596739,60.9856598 C482.793108,60.9856598 482.989476,60.9202036 483.185845,60.8547474 C483.774951,60.5274662 483.97132,59.8074477 483.644039,59.2183417 L482.204002,56.7964612 C481.87672,56.2073552 481.156702,56.0109865 480.567596,56.3382676 C479.97849,56.6655488 479.782121,57.3855673 480.109402,57.9746733 L481.549439,60.3965538 Z M493.200648,58.171042 C493.85521,58.171042 494.37886,57.6473922 494.37886,56.9928299 L494.37886,54.1782121 C494.37886,53.5236498 493.85521,53 493.200648,53 C492.546086,53 492.022436,53.5236498 492.022436,54.1782121 L492.022436,56.9928299 C491.95698,57.6473922 492.480629,58.171042 493.200648,58.171042 Z M471.99283,76.9569795 L469.178212,76.9569795 C468.52365,76.9569795 468,77.4806294 468,78.1351916 C468,78.7897539 468.52365,79.3134038 469.178212,79.3134038 L471.99283,79.3134038 C472.647392,79.3134038 473.171042,78.7897539 473.171042,78.1351916 C473.171042,77.4806294 472.647392,76.9569795 471.99283,76.9569795 Z M517.223084,76.9569795 L514.408466,76.9569795 C513.753904,76.9569795 513.230254,77.4806294 513.230254,78.1351916 C513.230254,78.7897539 513.753904,79.3134038 514.408466,79.3134038 L517.223084,79.3134038 C517.877646,79.3134038 518.401296,78.7897539 518.401296,78.1351916 C518.401296,77.4806294 517.877646,76.9569795 517.223084,76.9569795 Z M515.063028,65.5675958 C514.735747,64.9784898 514.015728,64.7821211 513.426622,65.1094022 L511.004742,66.5494392 C510.415636,66.8767204 510.219267,67.5967389 510.546548,68.185845 C510.742917,68.5785823 511.201111,68.774951 511.593848,68.774951 C511.790217,68.774951 511.986585,68.7094948 512.182954,68.6440385 L514.604835,67.2040015 C515.193941,66.8767204 515.390309,66.1567019 515.063028,65.5675958 Z M508.648318,78.0042792 C508.648318,80.6879845 507.928299,83.3062337 506.619175,85.6626579 C506.553718,85.8590266 506.488262,85.989939 506.35735,86.1208515 L506.226437,86.3172202 C505.702787,87.1026949 505.179138,87.8881696 504.524575,88.5427319 C502.233607,91.7500871 501.055395,94.4992487 501.120851,96.2665669 C501.120851,96.2665669 501.120851,96.3320231 501.120851,96.3320231 C501.120851,96.4629355 501.186308,96.6593042 501.186308,96.8556729 L501.186308,102.484909 C501.186308,104.972245 499.157165,106.935932 496.735284,106.935932 L489.469643,106.935932 C486.982306,106.935932 485.018619,104.906789 485.018619,102.484909 L485.018619,96.8556729 C485.018619,96.7247605 485.018619,96.6593042 485.018619,96.5283918 C485.018619,96.4629355 485.018619,96.3320231 485.018619,96.2665669 C485.084076,94.5647049 483.905863,91.8809996 481.745808,88.7391006 C481.025789,87.9536259 480.305771,87.1026949 479.782121,86.1208515 C479.716665,85.989939 479.651209,85.9244828 479.585752,85.7935703 C478.211172,83.4371461 477.491153,80.7534408 477.491153,78.0697354 C477.491153,69.4949695 484.49497,62.4911531 493.069735,62.4911531 C501.644501,62.4256969 508.648318,69.4295133 508.648318,78.0042792 Z M498.764427,97.5102352 L487.4405,97.5102352 L487.4405,99.735747 L498.764427,99.735747 L498.764427,97.5102352 L498.764427,97.5102352 Z M498.764427,102.615821 L498.764427,102.157627 L487.4405,102.157627 L487.4405,102.615821 C487.571412,103.663121 488.422343,104.448595 489.469643,104.448595 L496.735284,104.448595 C497.782584,104.448595 498.633515,103.663121 498.764427,102.615821 Z M506.226437,78.0042792 C506.226437,70.7386379 500.335377,64.8475773 493.069735,64.8475773 C485.804094,64.8475773 479.913034,70.7386379 479.913034,78.0042792 C479.913034,80.3607034 480.567596,82.6516714 481.745808,84.6808145 C481.745808,84.6808145 481.745808,84.6808145 481.745808,84.6808145 C481.745808,84.6808145 481.745808,84.6808145 481.745808,84.7462707 C482.269458,85.5972017 482.858564,86.3826764 483.513126,87.1026949 C483.578582,87.1681511 483.578582,87.1681511 483.644039,87.2336074 C485.804094,90.3100501 487.047762,92.9282992 487.375044,95.0883548 L498.829883,95.0883548 C499.222621,92.4046494 501.055395,89.3282067 502.691801,87.0372387 C502.691801,86.9717825 502.757257,86.9717825 502.822713,86.9063262 C503.411819,86.3172202 503.935469,85.5972017 504.328207,84.8771832 C504.328207,84.8117269 504.393663,84.8117269 504.393663,84.7462707 C504.393663,84.6808145 504.459119,84.6808145 504.459119,84.6153582 C505.637331,82.6516714 506.226437,80.3607034 506.226437,78.0042792 Z M475.396554,66.5494392 L472.974673,65.1094022 C472.385567,64.7821211 471.665549,64.9784898 471.338268,65.5675958 C471.010986,66.1567019 471.207355,66.8767204 471.796461,67.2040015 L474.218342,68.6440385 C474.41471,68.774951 474.611079,68.774951 474.807448,68.774951 C475.200185,68.774951 475.658379,68.5785823 475.854747,68.185845 C476.182029,67.5967389 475.98566,66.8767204 475.396554,66.5494392 Z" id="Shape" fill="#FFFFFF" fill-rule="nonzero"></path>
                <path d="M780.632476,53.1471483 C774.400771,69.7710286 773.568049,85.4066108 778.134311,100.053895" id="Path-3-Copy" stroke="#939597" stroke-width="4" stroke-linecap="round" transform="translate(777.935152, 76.600522) rotate(172.000000) translate(-777.935152, -76.600522) "></path>
                <g id="Group-35" transform="translate(198.500000, 81.500000) scale(-1, 1) translate(-198.500000, -81.500000) translate(0.000000, 1.000000)">
                    <path d="M133.5,26.0598906 L133.5,42.0911101" id="Line-Copy-2" stroke="#FFFFFF" stroke-linecap="square"></path>
                    <path d="M3.97903932e-13,89.9394427 C3.87801038,84.6496092 7.78310656,78.9349146 11.6663867,72.7693558 C11.6663867,72.7693558 58.5780553,-5.73588558 117.297423,0.965781361 C117.297423,0.965781361 151.444012,0.965781361 180.484568,38.941894 C180.484568,38.941894 209.844252,76.5988797 239.203936,114.574992 C239.203936,114.574992 298.24243,185.421186 358.557433,150.636343 C358.557433,150.636343 390.461265,132.628808 396.291343,94.5711904" id="Stroke-3-Copy" stroke="#231F20" stroke-width="2" stroke-dasharray="5,7"></path>
                    <path d="M393.056791,55.9447234 C373.715142,5.77157687 326.808579,1.77227734 326.808579,1.77227734 C280.216038,-1.73811963 247.02683,39.429263 247.02683,39.429263 C215.11413,71.9802168 190.222225,111.871091 190.222225,111.871091 C149.693096,165.484427 113.631745,160.059268 113.631745,160.059268 C63.8479337,159.101887 32.2543609,113.785853 32.2543609,113.785853 C21.2521356,98.4406443 23.486519,100.802141 13.9589844,88.3994141" id="Stroke-9-Copy" stroke="#939597" stroke-width="2" stroke-dasharray="5,7"></path>
                    <path d="M318.422229,142.401796 C285.051757,142.401796 258,115.350039 258,81.9808432 C258,48.6116479 285.051757,21.5598906 318.422229,21.5598906 C351.791425,21.5598906 378.843182,48.6116479 378.843182,81.9808432 C378.843182,115.350039 351.791425,142.401796 318.422229,142.401796 Z" id="Fill-17-Copy" fill-opacity="0.7" fill="#212121"></path>
                    <path d="M110.422229,140.401796 C77.0517573,140.401796 50,113.350039 50,79.9808432 C50,46.6116479 77.0517573,19.5598906 110.422229,19.5598906 C143.791425,19.5598906 170.843182,46.6116479 170.843182,79.9808432 C170.843182,113.350039 143.791425,140.401796 110.422229,140.401796 Z" id="Fill-15-Copy" fill-opacity="0.7" fill="#212121"></path>
                </g>
                <path d="M99.1314895,82.8593077 L95.3153981,76.4482742 C95.2390763,76.2956305 95.2390763,76.066665 95.3153981,75.8376996 L99.0551677,69.426666 C99.5130987,68.6634477 98.9788459,67.671264 98.0629839,67.671264 L68.8317239,67.5949421 L68.8317239,65.9158619 C68.8317239,65.3816091 68.3737929,65 67.9158619,65 L67.9158619,65 C67.3816091,65 67,65.457931 67,65.9158619 L67,67.5949421 L67,84.6147098 L67,112.853786 C67,113.388039 67.457931,113.769648 67.9158619,113.769648 L67.9158619,113.769648 C68.4501147,113.769648 68.8317239,113.311717 68.8317239,112.853786 L68.8317239,84.6147098 L98.0629839,84.5383879 C98.9788459,84.6147098 99.5130987,83.622526 99.1314895,82.8593077 Z M96.3839037,82.7066641 L68.8317239,82.7829859 L68.8317239,69.5029878 L96.3839037,69.5793097 C96.5365474,69.5793097 96.689191,69.8082752 96.6128692,69.9609188 L93.3310306,75.6087341 C93.1020651,75.9903432 93.1020651,76.3719523 93.3310306,76.7535615 L96.6128692,82.4013767 C96.689191,82.4776986 96.5365474,82.7066641 96.3839037,82.7066641 Z" id="Shape" fill="#FFFFFF" fill-rule="nonzero"></path>
                <g id="noun_1401998_cc-copy" transform="translate(270.000000, 63.000000)" fill-rule="nonzero" fill="#F0F0F0">
                    <g id="Group">
                        <path d="M20.5668531,18.7728607 C22.3369589,17.2758929 22.9878313,14.8254392 22.1958513,12.6398843 C21.4038714,10.4543294 19.3380221,9 17.0254597,9 C14.7128974,9 12.6470481,10.4543294 11.8550681,12.6398843 C11.0630882,14.8254392 11.7139606,17.2758929 13.4840664,18.7728607 C10.7403164,20.1232407 9.00048292,22.9273961 9,26 L11.038212,26 C11.0164292,22.9490836 13.2753128,20.3680097 16.2866079,20.003012 L17.7643116,20.003012 C20.7553637,20.3918503 22.9866273,22.96636 22.9617522,26 L24.9999642,26 C25.0090455,22.9388886 23.2907903,20.1376798 20.5668531,18.7728607 L20.5668531,18.7728607 Z M13.5350217,14.5185871 C13.547241,12.6901218 14.9620857,11.1819956 16.776057,11.0638686 C18.5900283,10.9457416 20.1863731,12.2577772 20.4328611,14.0693953 C20.679349,15.8810135 19.4921737,17.5762612 17.7133563,17.9527597 L16.3375632,17.9527597 C14.715933,17.6148175 13.5485886,16.1843794 13.5350217,14.5185871 L13.5350217,14.5185871 Z" id="Shape"></path>
                        <path d="M16.2871928,1.55180904e-06 C9.03522523,0.00360539365 2.65841957,4.92170686 0.643136079,12.065456 C-1.37214741,19.2092052 1.45920612,26.8589736 7.58922439,30.8324402 C13.7192427,34.8059068 21.6723204,34.146587 27.1003098,29.2149476 L37.2715522,39.6958727 C37.5273318,39.9581668 37.9001388,40.0606043 38.2495403,39.964598 C38.5989418,39.8685917 38.8718554,39.5887273 38.9654773,39.2304269 C39.0590991,38.8721266 38.9592058,38.4898246 38.7034261,38.2275306 L28.4828087,27.7972379 C32.7398648,22.8764426 33.7852491,15.8521376 31.153309,9.85320636 C28.5213688,3.85427511 22.7019334,-0.00282440925 16.2871928,1.55180904e-06 Z M1.96845346,16.7087228 C1.96745829,10.0979182 6.27459648,4.3015425 12.4904551,2.54863046 C18.7063137,0.795718427 25.2980644,3.51853747 28.5935865,9.20026437 C31.8891086,14.8819913 31.0757275,22.1215144 26.6065601,26.8858531 L26.4090603,27.088383 L26.2609354,27.3415455 C22.1209043,31.4632834 15.9728278,32.6339777 10.6658372,30.3111072 C5.35884659,27.9882367 1.93006529,22.6257504 1.96845346,16.7087228 L1.96845346,16.7087228 Z" id="Shape"></path>
                    </g>
                </g>
            </g>
            <path d="M5.79282417,53.043478 C-0.245184123,68.8652631 -1.20823751,84.3501264 2.90366402,99.4980678" id="Path-3" stroke="#231F20" stroke-width="4" stroke-linecap="round" transform="translate(3.098893, 76.270773) rotate(1.000000) translate(-3.098893, -76.270773) "></path>
        </g>
    </g>
</svg>