<?xml version="1.0" encoding="UTF-8"?>
<svg width="42px" height="42px" viewBox="0 0 42 42" version="1.1" xmlns="http://www.w3.org/2000/svg" xmlns:xlink="http://www.w3.org/1999/xlink">
    <!-- Generator: Sketch 45.2 (43514) - http://www.bohemiancoding.com/sketch -->
    <title>Group 8</title>
    <desc>Created with Sketch.</desc>
    <defs></defs>
    <g id="Home-Page" stroke="none" stroke-width="1" fill="none" fill-rule="evenodd">
        <g id="Mobile-Portrait-Copy-3" transform="translate(-105.000000, -2892.000000)">
            <g id="Group-8" transform="translate(106.000000, 2893.000000)">
                <g id="Group-5-Copy" stroke="#212121" stroke-width="1.5">
                    <path d="M20.0002113,39.9995775 C8.95433467,39.9995775 0,31.0452428 0,19.9997887 C0,8.95433467 8.95433467,0 20.0002113,0 C31.0456653,0 40,8.95433467 40,19.9997887 C40,31.0452428 31.0456653,39.9995775 20.0002113,39.9995775 Z" id="Fill-17-Copy-3" transform="translate(20.000000, 19.999789) scale(-1, 1) translate(-20.000000, -19.999789) "></path>
                </g>
                <path d="M23.9745454,11.5001541 L24.5535284,10.5264099 C24.6851155,10.2895532 24.974607,10.2106009 25.2114637,10.342188 C25.4483204,10.473775 25.5272726,10.7632666 25.3956856,11.0001233 L24.8167025,11.9738675 C24.7377503,12.1317719 24.5535284,12.2107242 24.395624,12.2107242 C24.3166717,12.2107242 24.2377195,12.1844068 24.1587673,12.1580894 C23.9219106,12.0265023 23.8429583,11.7370108 23.9745454,11.5001541 Z M15.4477041,11.9738675 C15.5266564,12.1317719 15.7108782,12.2107242 15.8687827,12.2107242 C15.9477349,12.2107242 16.0266872,12.1844068 16.1056394,12.1580894 C16.3424961,12.0265023 16.4214483,11.7370108 16.2898613,11.5001541 L15.7108782,10.5264099 C15.5792912,10.2895532 15.2897997,10.2106009 15.052943,10.342188 C14.8160863,10.473775 14.737134,10.7632666 14.8687211,11.0001233 L15.4477041,11.9738675 Z M20.1322033,11.0790755 C20.3953774,11.0790755 20.6059167,10.8685362 20.6059167,10.6053621 L20.6059167,9.4737134 C20.6059167,9.21053929 20.3953774,9 20.1322033,9 C19.8690292,9 19.6584899,9.21053929 19.6584899,9.4737134 L19.6584899,10.6053621 C19.6321725,10.8685362 19.8427118,11.0790755 20.1322033,11.0790755 Z M11.6053621,18.6321725 L10.4737134,18.6321725 C10.2105393,18.6321725 10,18.8427118 10,19.1058859 C10,19.36906 10.2105393,19.5795993 10.4737134,19.5795993 L11.6053621,19.5795993 C11.8685362,19.5795993 12.0790755,19.36906 12.0790755,19.1058859 C12.0790755,18.8427118 11.8685362,18.6321725 11.6053621,18.6321725 Z M29.7906933,18.6321725 L28.6590446,18.6321725 C28.3958705,18.6321725 28.1853312,18.8427118 28.1853312,19.1058859 C28.1853312,19.36906 28.3958705,19.5795993 28.6590446,19.5795993 L29.7906933,19.5795993 C30.0538674,19.5795993 30.2644067,19.36906 30.2644067,19.1058859 C30.2644067,18.8427118 30.0538674,18.6321725 29.7906933,18.6321725 Z M28.9222187,14.052943 C28.7906316,13.8160863 28.5011401,13.737134 28.2642834,13.8687211 L27.2905392,14.4477041 C27.0536825,14.5792912 26.9747303,14.8687827 27.1063173,15.1056394 C27.1852696,15.2635439 27.3694914,15.3424961 27.5273959,15.3424961 C27.6063481,15.3424961 27.6853004,15.3161787 27.7642526,15.2898613 L28.7379968,14.7108782 C28.9748535,14.5792912 29.0538057,14.2897997 28.9222187,14.052943 Z M26.3431124,19.0532511 C26.3431124,20.132265 26.0536209,21.1849614 25.5272726,22.1323882 C25.5009552,22.2113405 25.4746378,22.2639753 25.422003,22.3166101 L25.3693682,22.3955623 C25.1588289,22.7113713 24.9482896,23.0271802 24.6851155,23.2903543 C23.7640061,24.5799075 23.2902927,25.6852387 23.3166101,26.3958088 C23.3166101,26.3958088 23.3166101,26.4221263 23.3166101,26.4221263 C23.3166101,26.4747611 23.3429275,26.5537133 23.3429275,26.6326655 L23.3429275,28.8959629 C23.3429275,29.8960245 22.5270878,30.6855469 21.5533435,30.6855469 L18.6321109,30.6855469 C17.6320493,30.6855469 16.8425269,29.8697071 16.8425269,28.8959629 L16.8425269,26.6326655 C16.8425269,26.5800307 16.8425269,26.5537133 16.8425269,26.5010785 C16.8425269,26.4747611 16.8425269,26.4221263 16.8425269,26.3958088 C16.8688443,25.7115561 16.3951309,24.6325423 15.5266564,23.3693065 C15.2371648,23.0534976 14.9476733,22.7113713 14.737134,22.3166101 C14.7108166,22.2639753 14.6844992,22.2376579 14.6581818,22.185023 C14.1055162,21.2375962 13.8160246,20.1585824 13.8160246,19.0795685 C13.8160246,15.6319876 16.6319876,12.8160246 20.0795685,12.8160246 C23.5271494,12.7897072 26.3431124,15.6056702 26.3431124,19.0532511 Z M22.3691833,26.8958397 L17.8162711,26.8958397 L17.8162711,27.7906316 L22.3691833,27.7906316 L22.3691833,26.8958397 L22.3691833,26.8958397 Z M22.3691833,28.9485977 L22.3691833,28.7643759 L17.8162711,28.7643759 L17.8162711,28.9485977 C17.868906,29.3696763 18.2110323,29.6854852 18.6321109,29.6854852 L21.5533435,29.6854852 C21.9744221,29.6854852 22.3165485,29.3696763 22.3691833,28.9485977 Z M25.3693682,19.0532511 C25.3693682,16.1320185 23.0008012,13.7634514 20.0795685,13.7634514 C17.1583359,13.7634514 14.7897688,16.1320185 14.7897688,19.0532511 C14.7897688,20.0006779 15.052943,20.9217873 15.5266564,21.737627 C15.5266564,21.737627 15.5266564,21.737627 15.5266564,21.737627 C15.5266564,21.737627 15.5266564,21.737627 15.5266564,21.7639445 C15.7371957,22.1060708 15.9740524,22.4218797 16.2372265,22.7113713 C16.2635439,22.7376887 16.2635439,22.7376887 16.2898613,22.7640061 C17.1583359,24.0009244 17.6583667,25.0536209 17.7899537,25.9220954 L22.3955007,25.9220954 C22.5534052,24.8430816 23.2902927,23.6061632 23.948228,22.6850539 C23.948228,22.6587364 23.9745454,22.6587364 24.0008628,22.632419 C24.2377195,22.3955623 24.4482588,22.1060708 24.6061632,21.8165793 C24.6061632,21.7902619 24.6324807,21.7902619 24.6324807,21.7639445 C24.6324807,21.737627 24.6587981,21.737627 24.6587981,21.7113096 C25.1325115,20.9217873 25.3693682,20.0006779 25.3693682,19.0532511 Z M12.9738675,14.4477041 L12.0001233,13.8687211 C11.7632666,13.737134 11.473775,13.8160863 11.342188,14.052943 C11.2106009,14.2897997 11.2895532,14.5792912 11.5264099,14.7108782 L12.5001541,15.2898613 C12.5791063,15.3424961 12.6580585,15.3424961 12.7370108,15.3424961 C12.8949152,15.3424961 13.0791371,15.2635439 13.1580894,15.1056394 C13.2896764,14.8687827 13.2107242,14.5792912 12.9738675,14.4477041 Z" id="Shape-Copy-6" fill="#212121" fill-rule="nonzero"></path>
            </g>
        </g>
    </g>
</svg>