<?xml version="1.0" encoding="UTF-8"?>
<svg width="42px" height="42px" viewBox="0 0 42 42" version="1.1" xmlns="http://www.w3.org/2000/svg" xmlns:xlink="http://www.w3.org/1999/xlink">
    <!-- Generator: Sketch 45.2 (43514) - http://www.bohemiancoding.com/sketch -->
    <title>Group 4</title>
    <desc>Created with Sketch.</desc>
    <defs></defs>
    <g id="Home-Page" stroke="none" stroke-width="1" fill="none" fill-rule="evenodd">
        <g id="Mobile-Portrait-Copy-3" transform="translate(-270.000000, -2678.000000)">
            <g id="Group-4" transform="translate(271.000000, 2679.000000)">
                <path d="M20.0002113,39.9995775 C8.95433467,39.9995775 0,31.0452428 0,19.9997887 C0,8.95433467 8.95433467,0 20.0002113,0 C31.0456653,0 40,8.95433467 40,19.9997887 C40,31.0452428 31.0456653,39.9995775 20.0002113,39.9995775 Z" id="Fill-15-Copy-2" stroke="#000000" stroke-width="1.5" transform="translate(20.000000, 19.999789) scale(-1, 1) translate(-20.000000, -19.999789) "></path>
                <g id="Group-3" transform="translate(11.000000, 10.000000)" fill-rule="nonzero" fill="#212121">
                    <path d="M10.2235482,8.58705853 C11.11557,7.83268105 11.4435687,6.5978067 11.0444607,5.49642468 C10.6453527,4.39504265 9.60429472,3.6621522 8.43890895,3.6621522 C7.27352318,3.6621522 6.23246519,4.39504265 5.83335718,5.49642468 C5.43424917,6.5978067 5.76224786,7.83268105 6.65426972,8.58705853 C5.27159253,9.26756502 4.394826,10.6806828 4.39458264,12.2290816 L5.42171313,12.2290816 C5.41073599,10.6916119 6.54907106,9.39091319 8.06657415,9.20697736 L8.81124375,9.20697736 C10.3185456,9.40292734 11.442962,10.7003181 11.4304265,12.2290816 L12.457557,12.2290816 C12.4621334,10.6864743 11.596241,9.27484145 10.2235482,8.58705853 L10.2235482,8.58705853 Z M6.67994798,6.44317259 C6.68610572,5.52174122 7.39909837,4.76174058 8.31322567,4.70221202 C9.22735298,4.64268345 10.0318102,5.30386676 10.1560246,6.21680821 C10.280239,7.12974966 9.68197744,7.98404775 8.78556549,8.17377931 L8.09225241,8.17377931 C7.27505289,8.00347769 6.68678483,7.28262697 6.67994798,6.44317259 L6.67994798,6.44317259 Z" id="Shape-Copy"></path>
                    <path d="M8.20771949,7.82014031e-07 C4.55318453,0.00181689135 1.33967605,2.48023032 0.324100082,6.08023002 C-0.691475884,9.68022972 0.735347993,13.5352313 3.82449116,15.5376082 C6.91363434,17.5399852 10.9214847,17.2077295 13.6568495,14.7224938 L18.7825151,20.00422 C18.911412,20.1363997 19.0992832,20.1880218 19.2753596,20.1396406 C19.4514359,20.0912595 19.5889672,19.9502255 19.6361467,19.7696646 C19.6833262,19.5891038 19.6329863,19.3964477 19.5040894,19.264268 L14.3535419,14.0080574 C16.4988301,11.5282864 17.0256379,7.98847907 15.6993058,4.9653955 C14.3729738,1.94231193 11.4403448,-0.00142332439 8.20771949,7.82014031e-07 Z M0.99197658,8.42014408 C0.991475078,5.08871486 3.16200148,2.16770653 6.29440278,1.28434925 C9.42680407,0.400991977 12.7486313,1.77312131 14.4093669,4.63635386 C16.0701025,7.49958641 15.6602097,11.1478502 13.4080308,13.5487768 L13.3085033,13.6508392 L13.2338577,13.7784171 C11.1475427,15.8555134 8.04929931,16.4454696 5.37491026,15.2748892 C2.70052121,14.1043087 0.972631362,11.4019533 0.99197658,8.42014408 L0.99197658,8.42014408 Z" id="Shape-Copy-5"></path>
                </g>
            </g>
        </g>
    </g>
</svg>