<?xml version="1.0" encoding="UTF-8"?>
<svg width="42px" height="42px" viewBox="0 0 42 42" version="1.1" xmlns="http://www.w3.org/2000/svg" xmlns:xlink="http://www.w3.org/1999/xlink">
    <!-- Generator: Sketch 45.2 (43514) - http://www.bohemiancoding.com/sketch -->
    <title>Group 5</title>
    <desc>Created with Sketch.</desc>
    <defs></defs>
    <g id="Home-Page" stroke="none" stroke-width="1" fill="none" fill-rule="evenodd">
        <g id="Mobile-Portrait-Copy-3" transform="translate(-114.000000, -2678.000000)" stroke="#212121">
            <g id="Group-5" transform="translate(115.000000, 2679.000000)">
                <path d="M20.0002113,39.9995775 C8.95433467,39.9995775 0,31.0452428 0,19.9997887 C0,8.95433467 8.95433467,0 20.0002113,0 C31.0456653,0 40,8.95433467 40,19.9997887 C40,31.0452428 31.0456653,39.9995775 20.0002113,39.9995775 Z" id="Fill-17-Copy-3" stroke-width="1.5" transform="translate(20.000000, 19.999789) scale(-1, 1) translate(-20.000000, -19.999789) "></path>
                <path d="M28.3860874,17.4402481 L26.7962908,14.7693898 C26.7644949,14.7057979 26.7644949,14.6104102 26.7962908,14.5150224 L28.3542915,11.8441641 C28.5450671,11.5262047 28.3224955,11.1128576 27.9409444,11.1128576 L15.7631024,11.0810617 L15.7631024,10.3815512 C15.7631024,10.1589797 15.5723268,10 15.3815512,10 L15.3815512,10 C15.1589797,10 15,10.1907756 15,10.3815512 L15,11.0810617 L15,18.1715545 L15,29.9360494 C15,30.1586209 15.1907756,30.3176006 15.3815512,30.3176006 L15.3815512,30.3176006 C15.6041227,30.3176006 15.7631024,30.126825 15.7631024,29.9360494 L15.7631024,18.1715545 L27.9409444,18.1397586 C28.3224955,18.1715545 28.5450671,17.7582074 28.3860874,17.4402481 Z M27.2414339,17.3766562 L15.7631024,17.4084522 L15.7631024,11.87596 L27.2414339,11.9077559 C27.3050257,11.9077559 27.3686176,12.0031437 27.3368217,12.0667356 L25.9695966,14.4196346 C25.8742088,14.5786142 25.8742088,14.7375939 25.9695966,14.8965735 L27.3368217,17.2494725 C27.3686176,17.2812684 27.3050257,17.3766562 27.2414339,17.3766562 Z" id="Shape-Copy-4" stroke-width="0.5" fill="#212121" fill-rule="nonzero"></path>
            </g>
        </g>
    </g>
</svg>