<?xml version="1.0" encoding="UTF-8"?>
<svg width="296px" height="352px" viewBox="0 0 296 352" version="1.1" xmlns="http://www.w3.org/2000/svg" xmlns:xlink="http://www.w3.org/1999/xlink">
    <!-- Generator: Sketch 45.2 (43514) - http://www.bohemiancoding.com/sketch -->
    <title>Group 9</title>
    <desc>Created with Sketch.</desc>
    <defs></defs>
    <g id="Home-Page" stroke="none" stroke-width="1" fill="none" fill-rule="evenodd">
        <g id="Mobile-Portrait-Copy-3" transform="translate(-58.000000, -1810.000000)">
            <g id="Group-9" transform="translate(58.000000, 1810.000000)">
                <g id="Group-8">
                    <g id="Group-3" transform="translate(25.000000, 0.000000)">
                        <path d="M35.7272169,71.4529241 C15.9955039,71.4529241 0,55.4574203 0,35.7264621 C0,15.9955039 15.9955039,0 35.7272169,0 C55.4581751,0 71.4536789,15.9955039 71.4536789,35.7264621 C71.4536789,55.4574203 55.4581751,71.4529241 35.7272169,71.4529241 Z" id="Fill-17-Copy-2" fill="#4A4A4A" transform="translate(35.726839, 35.726462) scale(-1, 1) translate(-35.726839, -35.726462) "></path>
                        <path d="M47.9724492,35.3943656 L45.7160226,31.6035689 C45.6708941,31.5133118 45.6708941,31.3779262 45.7160226,31.2425406 L47.9273207,27.451744 C48.1980919,27.0004586 47.8821921,26.4137877 47.3406498,26.4137877 L30.0564221,26.3686592 L30.0564221,25.3758315 C30.0564221,25.0599318 29.7856509,24.8342891 29.5148797,24.8342891 L29.5148797,24.8342891 C29.19898,24.8342891 28.9733373,25.1050603 28.9733373,25.3758315 L28.9733373,26.3686592 L28.9733373,36.4323218 L28.9733373,53.1298786 C28.9733373,53.4457783 29.2441085,53.671421 29.5148797,53.671421 L29.5148797,53.671421 C29.8307794,53.671421 30.0564221,53.4006498 30.0564221,53.1298786 L30.0564221,36.4323218 L47.3406498,36.3871933 C47.8821921,36.4323218 48.1980919,35.8456509 47.9724492,35.3943656 Z M46.3478221,35.3041085 L30.0564221,35.349237 L30.0564221,27.4968725 L46.3478221,27.542001 C46.4380791,27.542001 46.5283362,27.6773866 46.4832077,27.7676437 L44.5426808,31.107155 C44.4072952,31.3327977 44.4072952,31.5584404 44.5426808,31.784083 L46.4832077,35.1235944 C46.5283362,35.1687229 46.4380791,35.3041085 46.3478221,35.3041085 Z" id="Shape-Copy-3" fill="#FFFFFF" fill-rule="nonzero"></path>
                    </g>
                    <g id="Group-5" transform="translate(191.000000, 0.000000)">
                        <path d="M36.2620537,71.9117664 C16.5723026,71.9117664 0.610815052,55.9502789 0.610815052,36.261281 C0.610815052,16.572283 16.5723026,0.610795487 36.2620537,0.610795487 C55.9510517,0.610795487 71.9125392,16.572283 71.9125392,36.261281 C71.9125392,55.9502789 55.9510517,71.9117664 36.2620537,71.9117664 Z" id="Fill-15-Copy" fill="#4A4A4A" transform="translate(36.261677, 36.261281) scale(-1, 1) translate(-36.261677, -36.261281) "></path>
                        <g id="Group-4" transform="translate(22.893682, 23.755110)" fill-rule="nonzero" fill="#F0F0F0">
                            <path d="M14.1506936,12.9163659 C15.3685866,11.8864012 15.8164089,10.2004058 15.2714998,8.69666982 C14.7265907,7.19293381 13.3052161,6.19230575 11.7140947,6.19230575 C10.1229733,6.19230575 8.70159872,7.19293381 8.15668962,8.69666982 C7.61178052,10.2004058 8.05960282,11.8864012 9.27749576,12.9163659 C7.38970258,13.8454732 6.19263802,15.7748274 6.19230575,17.8888833 L7.59466485,17.8888833 C7.57967757,15.7897491 9.1338662,14.0138826 11.2057395,13.7627518 L12.2224499,13.7627518 C14.2803953,14.0302857 15.8155805,15.8016359 15.7984656,17.8888833 L17.2008247,17.8888833 C17.2070729,15.7827347 16.024855,13.8554079 14.1506936,12.9163659 L14.1506936,12.9163659 Z M9.31255474,9.98928119 C9.32096201,8.73123494 10.2944233,7.69359287 11.5424971,7.61231748 C12.790571,7.53104209 13.8889105,8.43376715 14.0585026,9.68022197 C14.2280946,10.9266768 13.4112777,12.0930648 12.1873909,12.3521086 L11.2407985,12.3521086 C10.1250618,12.1195928 9.3218892,11.1354028 9.31255474,9.98928119 L9.31255474,9.98928119 Z" id="Shape"></path>
                            <path d="M11.206142,1.06769734e-06 C6.21654191,0.00248063332 1.82908298,3.38630152 0.442499471,8.30144363 C-0.944084033,13.2165857 1.00398339,18.4798863 5.2216442,21.2137663 C9.43930502,23.9476463 14.9112927,23.4940119 18.6459338,20.1008764 L25.6440941,27.312109 C25.8200792,27.4925762 26.076583,27.5630567 26.3169831,27.4970011 C26.5573832,27.4309455 26.7451571,27.2383893 26.8095721,26.9918665 C26.8739871,26.7453436 26.8052571,26.4823069 26.629272,26.3018397 L19.59714,19.125444 C22.5261393,15.7397696 23.2453991,10.9068092 21.4345349,6.77934071 C19.6236707,2.65187221 15.6197014,-0.00194328951 11.206142,1.06769734e-06 Z M1.35436285,11.4961689 C1.35367814,6.94771078 4.31713554,2.95960737 8.59385742,1.75354434 C12.8705793,0.54748131 17.4059278,2.42087331 19.6733589,6.33009444 C21.94079,10.2393156 21.3811562,15.2203534 18.3062173,18.4983803 L18.1703307,18.6377278 L18.0684157,18.8119121 C15.2199337,21.6478078 10.9898481,22.4532853 7.33845832,20.8550715 C3.68706851,19.2568577 1.32795049,15.5672849 1.35436285,11.4961689 L1.35436285,11.4961689 Z" id="Shape"></path>
                        </g>
                    </g>
                    <path d="M91.5,263.5 L91.5,279.53122" id="Line-Copy" stroke="#FFFFFF" stroke-linecap="square"></path>
                    <g id="Group-6" transform="translate(25.000000, 196.000000)">
                        <path d="M35.9537231,71.9059271 C16.0969134,71.9059271 0,55.8090137 0,35.9529636 C0,16.0969134 16.0969134,0 35.9537231,0 C55.8097733,0 71.9066867,16.0969134 71.9066867,35.9529636 C71.9066867,55.8090137 55.8097733,71.9059271 35.9537231,71.9059271 Z" id="Fill-15" fill="#4A4A4A"></path>
                        <path d="M41.5084506,23.3365339 L42.3653321,21.895415 C42.5600779,21.5448725 42.9885187,21.428025 43.3390611,21.6227708 C43.6896036,21.8175166 43.806451,22.2459574 43.6117052,22.5964998 L42.7548237,24.0376188 C42.6379762,24.2713137 42.3653321,24.3881612 42.1316371,24.3881612 C42.0147896,24.3881612 41.8979422,24.3492121 41.7810947,24.3102629 C41.4305522,24.1155171 41.3137048,23.6870763 41.5084506,23.3365339 Z M28.8889225,24.0376188 C29.00577,24.2713137 29.2784141,24.3881612 29.5121091,24.3881612 C29.6289566,24.3881612 29.7458041,24.3492121 29.8626515,24.3102629 C30.213194,24.1155171 30.3300415,23.6870763 30.1352957,23.3365339 L29.2784141,21.895415 C29.0836683,21.5448725 28.6552276,21.428025 28.3046851,21.6227708 C27.9541427,21.8175166 27.8372952,22.2459574 28.032041,22.5964998 L28.8889225,24.0376188 Z M35.8218731,22.7133473 C36.2113647,22.7133473 36.522958,22.401754 36.522958,22.0122624 L36.522958,20.3374485 C36.522958,19.9479569 36.2113647,19.6363636 35.8218731,19.6363636 C35.4323815,19.6363636 35.1207882,19.9479569 35.1207882,20.3374485 L35.1207882,22.0122624 C35.0818391,22.401754 35.3934323,22.7133473 35.8218731,22.7133473 Z M23.2023451,33.8917564 L21.5275312,33.8917564 C21.1380396,33.8917564 20.8264463,34.2033497 20.8264463,34.5928413 C20.8264463,34.9823329 21.1380396,35.2939262 21.5275312,35.2939262 L23.2023451,35.2939262 C23.5918367,35.2939262 23.90343,34.9823329 23.90343,34.5928413 C23.90343,34.2033497 23.5918367,33.8917564 23.2023451,33.8917564 Z M50.1162151,33.8917564 L48.4414011,33.8917564 C48.0519095,33.8917564 47.7403163,34.2033497 47.7403163,34.5928413 C47.7403163,34.9823329 48.0519095,35.2939262 48.4414011,35.2939262 L50.1162151,35.2939262 C50.5057067,35.2939262 50.8172999,34.9823329 50.8172999,34.5928413 C50.8172999,34.2033497 50.5057067,33.8917564 50.1162151,33.8917564 Z M48.8308928,27.1146025 C48.636147,26.76406 48.2077062,26.6472125 47.8571637,26.8419583 L46.4160448,27.6988399 C46.0655024,27.8935857 45.9486549,28.3220265 46.1434007,28.6725689 C46.2602482,28.9062639 46.5328923,29.0231113 46.7665872,29.0231113 C46.8834347,29.0231113 47.0002822,28.9841622 47.1171297,28.945213 L48.5582486,28.0883315 C48.9087911,27.8935857 49.0256386,27.4651449 48.8308928,27.1146025 Z M45.013875,34.514943 C45.013875,36.1118586 44.5854342,37.669825 43.806451,39.0719948 C43.7675019,39.1888423 43.7285527,39.2667406 43.6506544,39.3446389 L43.5727561,39.4614864 C43.2611628,39.9288763 42.9495695,40.3962662 42.5600779,40.7857578 C41.1968573,42.6942667 40.4957724,44.3301315 40.5347215,45.3817588 C40.5347215,45.3817588 40.5347215,45.420708 40.5347215,45.420708 C40.5347215,45.4986063 40.5736707,45.6154538 40.5736707,45.7323012 L40.5736707,49.0819291 C40.5736707,50.5619972 39.3662467,51.730472 37.9251278,51.730472 L33.601771,51.730472 C32.1217029,51.730472 30.953228,50.523048 30.953228,49.0819291 L30.953228,45.7323012 C30.953228,45.6544029 30.953228,45.6154538 30.953228,45.5375554 C30.953228,45.4986063 30.953228,45.420708 30.953228,45.3817588 C30.9921772,44.3690806 30.2910923,42.772165 29.00577,40.9026053 C28.5773292,40.4352154 28.1488885,39.9288763 27.8372952,39.3446389 C27.798346,39.2667406 27.7593969,39.2277914 27.7204477,39.1498931 C26.9025153,37.7477233 26.4740746,36.1508077 26.4740746,34.5538921 C26.4740746,29.4515521 30.6416348,25.2839919 35.7439748,25.2839919 C40.8463148,25.2450428 45.013875,29.4126029 45.013875,34.514943 Z M39.1325518,46.1217928 L32.394347,46.1217928 L32.394347,47.4460643 L39.1325518,47.4460643 L39.1325518,46.1217928 L39.1325518,46.1217928 Z M39.1325518,49.1598274 L39.1325518,48.8871832 L32.394347,48.8871832 L32.394347,49.1598274 C32.4722453,49.7830139 32.9785844,50.2504039 33.601771,50.2504039 L37.9251278,50.2504039 C38.5483144,50.2504039 39.0546534,49.7830139 39.1325518,49.1598274 Z M43.5727561,34.514943 C43.5727561,30.1915862 40.0673316,26.6861617 35.7439748,26.6861617 C31.420618,26.6861617 27.9151935,30.1915862 27.9151935,34.514943 C27.9151935,35.9171128 28.3046851,37.2803334 29.00577,38.4877574 C29.00577,38.4877574 29.00577,38.4877574 29.00577,38.4877574 C29.00577,38.4877574 29.00577,38.4877574 29.00577,38.5267065 C29.3173633,39.0330456 29.6679057,39.5004355 30.0573973,39.9288763 C30.0963465,39.9678255 30.0963465,39.9678255 30.1352957,40.0067746 C31.420618,41.8373852 32.160652,43.3953516 32.3553978,44.6806739 L39.1715009,44.6806739 C39.4051959,43.0837583 40.4957724,41.2531478 41.4695014,39.8899271 C41.4695014,39.850978 41.5084506,39.850978 41.5473997,39.8120288 C41.8979422,39.4614864 42.2095355,39.0330456 42.4432304,38.6046048 C42.4432304,38.5656557 42.4821796,38.5656557 42.4821796,38.5267065 C42.4821796,38.4877574 42.5211287,38.4877574 42.5211287,38.4488082 C43.2222136,37.2803334 43.5727561,35.9171128 43.5727561,34.514943 Z M25.2277014,27.6988399 L23.7865825,26.8419583 C23.43604,26.6472125 23.0075993,26.76406 22.8128535,27.1146025 C22.6181077,27.4651449 22.7349552,27.8935857 23.0854976,28.0883315 L24.5266165,28.945213 C24.643464,29.0231113 24.7603115,29.0231113 24.877159,29.0231113 C25.1108539,29.0231113 25.3834981,28.9062639 25.5003456,28.6725689 C25.6950914,28.3220265 25.5782439,27.8935857 25.2277014,27.6988399 Z" id="Shape" fill="#FFFFFF" fill-rule="nonzero"></path>
                    </g>
                    <g id="Group-7" transform="translate(191.000000, 196.000000)">
                        <path d="M35.9485809,71.3543219 C16.3935625,71.3543219 0.541296132,55.5020555 0.541296132,35.9477852 C0.541296132,16.393515 16.3935625,0.541248549 35.9485809,0.541248549 C55.5028512,0.541248549 71.3551176,16.393515 71.3551176,35.9477852 C71.3551176,55.5020555 55.5028512,71.3543219 35.9485809,71.3543219 Z" id="Fill-17" fill="#4A4A4A"></path>
                        <path d="M28.8396048,40.8223636 C28.6964033,40.8223636 28.6009356,40.7745186 28.5054679,40.6788284 L23.9230181,36.0857004 C23.8275504,35.9900103 23.7798165,35.7986299 23.7798165,35.6550947 C23.8275504,35.5115594 23.9230181,35.3680242 24.0662196,35.3201791 L46.0237916,25.7990076 C46.2624608,25.7033174 46.5011301,25.7990076 46.6443316,25.9903879 C46.7875332,26.1817683 46.7397993,26.4688388 46.5488639,26.612374 L29.1260079,40.7266735 C29.0782741,40.7745186 28.9350725,40.8223636 28.8396048,40.8223636 Z M25.0686305,35.8943201 L28.8396048,39.6740816 L43.1597604,27.9998814 L25.0686305,35.8943201 Z" id="Shape" fill="#FFFFFF" fill-rule="nonzero"></path>
                        <path d="M36.7728185,48.7148753 C36.629617,48.7148753 36.5341493,48.6670302 36.4386816,48.57134 L31.8562318,43.9782121 C31.6652964,43.7868317 31.6652964,43.5476063 31.8084979,43.356226 L45.8899843,25.9406158 C46.0331858,25.7492355 46.3195889,25.7013904 46.5105244,25.8449257 C46.7014598,25.9884609 46.7969275,26.2276863 46.7014598,26.4669117 L37.2024232,48.4278048 C37.1546894,48.57134 37.0114878,48.6670302 36.8682863,48.7148753 C36.8205524,48.7148753 36.8205524,48.7148753 36.7728185,48.7148753 Z M32.8109088,43.5954514 L36.5818831,47.375213 L44.4102349,29.1940815 L32.8109088,43.5954514 Z" id="Shape" fill="#FFFFFF" fill-rule="nonzero"></path>
                        <path d="M28.2204578,45.097505 C28.0772562,45.097505 27.9817885,45.0496599 27.8863208,44.9539697 C27.7908531,44.8582796 27.7431193,44.6668992 27.7431193,44.523364 L28.7455302,40.2651516 C28.793264,40.1694615 28.8409979,40.0737713 28.8887317,39.9780811 L46.2638538,25.8637817 C46.4547893,25.7202464 46.7411924,25.7202464 46.8843939,25.9116268 C47.0275955,26.1030071 47.0753293,26.3422325 46.9321278,26.5336128 L32.8506414,43.949223 C32.8029076,44.0449132 32.7074399,44.0927583 32.5642383,44.0927583 L28.3159255,45.097505 C28.2681916,45.097505 28.2204578,45.097505 28.2204578,45.097505 Z M29.6047395,40.6479123 L28.8409979,43.9970681 L32.1823675,43.2315468 L43.304355,29.500008 L29.6047395,40.6479123 Z" id="Shape" fill="#FFFFFF" fill-rule="nonzero"></path>
                    </g>
                    <text id="CREATIVE" font-family="ProximaNova-Regular, Proxima Nova" font-size="12" font-weight="600" fill="#000000">
                        <tspan x="33.84375" y="93">CREATIVE </tspan>
                    </text>
                    <text id="Visioning-Naming-&amp;-S" font-family="ProximaNova-Regular, Proxima Nova" font-size="12" font-weight="normal" fill="#4A4A4A">
                        <tspan x="36.3115234" y="112">Visioning</tspan>
                        <tspan x="11.2099609" y="126">Naming &amp; Strategy</tspan>
                        <tspan x="11.9511719" y="140">Experience Design</tspan>
                        <tspan x="30.0566406" y="154">Look &amp; Feel</tspan>
                    </text>
                    <text id="RESEARCH" font-family="ProximaNova-Regular, Proxima Nova" font-size="12" font-weight="600" fill="#000000">
                        <tspan x="197" y="94">RESEARCH</tspan>
                    </text>
                    <text id="Macro-&amp;-Micro-Intera" font-family="ProximaNova-Regular, Proxima Nova" font-size="12" font-weight="normal" fill="#4A4A4A">
                        <tspan x="157.768555" y="112">Macro &amp; Micro Interaction </tspan>
                        <tspan x="171.69043" y="126">Competitive analysis</tspan>
                        <tspan x="182.231445" y="140">Behaviour Model</tspan>
                    </text>
                    <text id="IDEATE-&amp;-PROTOTYPE" font-family="ProximaNova-Regular, Proxima Nova" font-size="12" font-weight="600" fill="#000000">
                        <tspan x="0" y="292">IDEATE &amp; PROTOTYPE</tspan>
                    </text>
                    <text id="Visioning-Naming-&amp;-S-Copy" font-family="ProximaNova-Regular, Proxima Nova" font-size="12" font-weight="normal" fill="#4A4A4A">
                        <tspan x="36.3115234" y="309">Visioning</tspan>
                        <tspan x="11.2099609" y="323">Naming &amp; Strategy</tspan>
                        <tspan x="11.9511719" y="337">Experience Design</tspan>
                        <tspan x="30.0566406" y="351">Look &amp; Feel</tspan>
                    </text>
                    <text id="Visioning-Naming-&amp;-S-Copy-2" font-family="ProximaNova-Regular, Proxima Nova" font-size="12" font-weight="normal" fill="#4A4A4A">
                        <tspan x="202.311523" y="309">Visioning</tspan>
                        <tspan x="177.209961" y="323">Naming &amp; Strategy</tspan>
                        <tspan x="177.951172" y="337">Experience Design</tspan>
                        <tspan x="196.056641" y="351">Look &amp; Feel</tspan>
                    </text>
                    <text id="IIMPLITATION" font-family="ProximaNova-Regular, Proxima Nova" font-size="12" font-weight="600" fill="#000000">
                        <tspan x="188" y="291">IIMPLITATION</tspan>
                    </text>
                </g>
            </g>
        </g>
    </g>
</svg>
