<?xml version="1.0" encoding="utf-8"?>
<!-- Generator: Adobe Illustrator 16.0.0, SVG Export Plug-In . SVG Version: 6.00 Build 0)  -->
<!DOCTYPE svg PUBLIC "-//W3C//DTD SVG 1.1//EN" "http://www.w3.org/Graphics/SVG/1.1/DTD/svg11.dtd">
<svg version="1.1" id="Layer_1" xmlns="http://www.w3.org/2000/svg" xmlns:xlink="http://www.w3.org/1999/xlink" x="0px" y="0px"
	 width="47px" height="47px" viewBox="0 0 47 47" enable-background="new 0 0 47 47" xml:space="preserve">
<g>
	
		<line stroke="#000000" stroke-width="1.5" stroke-linecap="round" stroke-linejoin="round" stroke-miterlimit="10" x1="3.221" y1="1.521" x2="3.221" y2="45.479"/>
	
		<line stroke="#000000" stroke-width="1.5" stroke-linecap="round" stroke-linejoin="round" stroke-miterlimit="10" x1="3.221" y1="10.744" x2="13.378" y2="10.744"/>
	
		<line stroke="#000000" stroke-width="1.5" stroke-linecap="round" stroke-linejoin="round" stroke-miterlimit="10" x1="3.221" y1="34.967" x2="13.378" y2="34.967"/>
	<path fill="none" stroke="#CC2027" stroke-width="1.5" stroke-linecap="round" stroke-linejoin="round" d="M43.779,22.944
		c0,9.69-7.854,17.545-17.548,17.545c-9.691,0-17.548-7.854-17.548-17.545c0-9.693,7.856-17.549,17.548-17.549
		C35.925,5.396,43.779,13.251,43.779,22.944z"/>
	<path stroke="#000000" stroke-width="0.25" stroke-miterlimit="10" d="M14.64,16.291v1.986c0,5.453,2.81,10.193,6.996,11.791
		c0.056,0.021,0.118,0.035,0.18,0.035h5.41c0.062,0,0.12-0.014,0.18-0.035c2.286-0.871,4.155-2.686,5.387-5.036h2.021
		c1.659,0,3.009-1.35,3.009-3.012c0-1.66-1.35-3.011-3.009-3.011h-0.435c0.014-0.243,0.023-0.485,0.023-0.731v-1.986
		c0-0.281-0.224-0.508-0.507-0.508H15.146C14.865,15.783,14.64,16.01,14.64,16.291z M34.813,20.02c1.103,0,1.999,0.897,1.999,2
		s-0.896,2-1.999,2h-1.535c0.515-1.231,0.86-2.582,1.021-4H34.813z M15.651,16.796h17.737v1.48c0,4.919-2.569,9.351-6.261,10.813
		h-5.216c-3.691-1.462-6.26-5.894-6.26-10.813V16.796z"/>
</g>
</svg>
