<svg xmlns="http://www.w3.org/2000/svg" width="47" height="39" viewBox="0 0 47 39">
    <g fill="none" fill-rule="evenodd">
        <path fill="#000" fill-rule="nonzero" d="M25.782 22.81a.674.674 0 0 0 .334.884.65.65 0 0 0 .867-.34.728.728 0 0 0 .054-.187l.328-1.11 2.118-1.573a.683.683 0 0 0 .246-.377l2.673-10.164.945.273-1.277 5.24a.679.679 0 0 0 .42.847.656.656 0 0 0 .83-.427.472.472 0 0 0 .027-.108l1.294-5.363c.149-.614-.174-1.272-.801-1.447l-1.11-.314.165-.608.021-.041h-.021c.084-.244.145-.485.145-.755 0-1.289-1.04-2.347-2.304-2.347-.998 0-1.864.654-2.179 1.572a.207.207 0 0 0-.018.042l-3.043 12.26a.642.642 0 0 0 0 .334l.616 2.514-.33 1.194zM29.79 6.903h.021a.978.978 0 0 1 .925-.673.989.989 0 0 1 .925 1.343l-.021.063-.163.65-1.891-.523.204-.86zm-.534 2.18l1.871.502-2.611 9.953-1.315.986-.39-1.592 2.445-9.85z"/>
        <path fill="#000" fill-rule="nonzero" d="M3.765 29.705h14.658l-4.486 7.982c.515-.014 1.028-.023 1.54-.036l4.446-7.946h7.153l4.316 7.71c.42.008.841-.006 1.262.008.06-.019.139-.04.223-.063l-4.302-7.655h14.657c1.81 0 3.29-1.51 3.29-3.353v-22.8c0-1.845-1.48-3.354-3.29-3.354H3.764C1.954.198.475 1.708.475 3.551v22.802c.003 1.844 1.48 3.352 3.29 3.352zM1.793 3.55c0-1.124.869-2.012 1.974-2.012h39.468c1.103 0 1.972.888 1.972 2.012v22.802c0 1.126-.869 2.012-1.972 2.012H3.767c-1.105 0-1.974-.886-1.974-2.012V3.55z"/>
        <path stroke="#CC2027" stroke-linecap="round" stroke-linejoin="round" stroke-width="1.65" d="M6.672 25.045c2.418-2.71 5.686-1.515 8.355-.182 2.573 1.285 5.77.702 7.107-2.198M7.966 37.385h31.068"/>
    </g>
</svg>
