<?xml version="1.0" encoding="utf-8"?>
<!-- Generator: Adobe Illustrator 16.0.0, SVG Export Plug-In . SVG Version: 6.00 Build 0)  -->
<!DOCTYPE svg PUBLIC "-//W3C//DTD SVG 1.1//EN" "http://www.w3.org/Graphics/SVG/1.1/DTD/svg11.dtd">
<svg version="1.1" id="Layer_1" xmlns="http://www.w3.org/2000/svg" xmlns:xlink="http://www.w3.org/1999/xlink" x="0px" y="0px"
	 width="47px" height="47px" viewBox="0 0 47 47" enable-background="new 0 0 47 47" xml:space="preserve">
<g>
	<path fill="none" stroke="#000000" stroke-width="1.3" stroke-linecap="round" stroke-linejoin="round" stroke-miterlimit="10" d="
		M3.881,22.645V10.177c0,0,0.709-3.656,6.082-3.251"/>
	<path fill="none" stroke="#CC2027" stroke-width="1.3" stroke-linecap="round" stroke-linejoin="round" stroke-miterlimit="10" d="
		M10,7.148c-1.229,2.204-1.137,5.578,0.668,7.343l0.152,0.153c0.086,0.109,0.223,0.166,0.359,0.153
		c0.135-0.006,0.264-0.062,0.359-0.153l7.34-7.338c0.195-0.201,0.195-0.521,0-0.719l-0.154-0.154c-2.238-2.197-5.82-2.197-8.057,0
		L10,7.148"/>
	<path fill="none" stroke="#000000" stroke-width="1.3" stroke-linecap="round" stroke-linejoin="round" stroke-miterlimit="10" d="
		M3.709,22.827c-1.012,0.128-2.025,1.017-2.043,2.038v4.305"/>
	<path fill="none" stroke="#000000" stroke-width="1.3" stroke-linecap="round" stroke-linejoin="round" stroke-miterlimit="10" d="
		M44.564,29.402v-4.537c0-1.134-0.916-2.052-2.053-2.052H34.66v-4.208h7.596c1.701,0,3.078-1.378,3.078-3.079V5.877
		c0-1.7-1.377-3.079-3.078-3.079H26.039c-1.701,0-3.078,1.379-3.078,3.079v9.649c0,1.701,1.377,3.079,3.078,3.079h7.596v4.208H3.844
		"/>
	
		<polyline fill="none" stroke="#CC2027" stroke-width="1.3" stroke-linecap="round" stroke-linejoin="round" stroke-miterlimit="10" points="
		44.654,44.201 44.654,29.051 1.68,29.051 1.68,44.096 	"/>
</g>
</svg>
