<svg xmlns="http://www.w3.org/2000/svg" width="38" height="38" viewBox="0 0 38 38">
    <g fill="#4A4A4A" fill-rule="nonzero" transform="translate(0 .25)">
        <circle cx="18.978" cy="18.903" r="3.327"/>
        <path d="M23.137 10.737H14.82c-1.21 0-2.269.378-2.95 1.058-.68.68-1.058 1.74-1.058 2.95v8.316c0 1.21.378 2.269 1.135 3.025.756.68 1.739 1.058 2.948 1.058h8.242c1.21 0 2.268-.378 2.949-1.058.756-.68 1.134-1.74 1.134-2.949V14.82c0-1.21-.378-2.193-1.059-2.95-.756-.755-1.739-1.133-3.024-1.133zm-4.159 13.307c-2.873 0-5.141-2.344-5.141-5.141 0-2.873 2.344-5.142 5.141-5.142 2.798 0 5.218 2.269 5.218 5.142s-2.344 5.141-5.218 5.141zm5.369-9.3c-.68 0-1.21-.53-1.21-1.21 0-.68.53-1.21 1.21-1.21.68 0 1.21.53 1.21 1.21 0 .68-.53 1.21-1.21 1.21z"/>
        <path d="M19.13.151C8.846.151.53 8.468.53 18.751c0 10.284 8.316 18.6 18.6 18.6 10.283 0 18.6-8.316 18.6-18.6.075-10.283-8.317-18.6-18.6-18.6zm9.905 22.986c0 1.739-.605 3.251-1.664 4.31-1.058 1.058-2.57 1.588-4.234 1.588h-8.242c-1.663 0-3.175-.53-4.234-1.588-1.134-1.059-1.663-2.571-1.663-4.31V14.82c0-3.478 2.344-5.898 5.897-5.898h8.318c1.739 0 3.175.605 4.234 1.664 1.058 1.058 1.588 2.495 1.588 4.234v8.317z"/>
    </g>
</svg>
