<svg xmlns="http://www.w3.org/2000/svg" width="38" height="39" viewBox="0 0 38 39">
    <path fill="#4A4A4A" fill-rule="evenodd" d="M29.663 28.203v-7.417c0-3.974-2.121-5.824-4.95-5.824-2.282 0-3.305 1.256-3.875 2.137v-1.833h-4.3c.057 1.214 0 12.937 0 12.937h4.3v-7.225c0-.385.028-.772.142-1.048.31-.772 1.018-1.572 2.205-1.572 1.557 0 2.179 1.186 2.179 2.924v6.922h4.3zM12.007 13.501c1.5 0 2.434-.995 2.434-2.237-.028-1.268-.935-2.234-2.405-2.234-1.47 0-2.433.965-2.433 2.234 0 1.242.934 2.237 2.377 2.237h.027zM19 38.25c-10.493 0-19-8.507-19-19 0-10.494 8.507-19 19-19s19 8.506 19 19c0 10.493-8.507 19-19 19zm-4.842-10.047V15.266h-4.3v12.937h4.3z"/>
</svg>
