<svg xmlns="http://www.w3.org/2000/svg" width="38" height="38" viewBox="0 0 38 38">
    <path fill="#4A4A4A" fill-rule="nonzero" d="M18.868.25C8.464.25 0 8.714 0 19.118 0 29.52 8.464 37.986 18.868 37.986c10.403 0 18.868-8.465 18.868-18.868C37.736 8.714 29.272.25 18.868.25zm8.417 14.55c.008.186.013.375.013.563 0 5.74-4.367 12.354-12.357 12.354-2.453 0-4.736-.717-6.657-1.95a8.716 8.716 0 0 0 6.43-1.798 4.347 4.347 0 0 1-4.057-3.016 4.377 4.377 0 0 0 1.96-.073 4.343 4.343 0 0 1-3.483-4.258l.001-.055c.585.325 1.255.52 1.966.543a4.34 4.34 0 0 1-1.93-3.614c0-.796.213-1.543.587-2.184a12.33 12.33 0 0 0 8.95 4.539 4.337 4.337 0 0 1-.112-.99 4.343 4.343 0 0 1 7.512-2.972 8.668 8.668 0 0 0 2.76-1.054 4.362 4.362 0 0 1-1.913 2.403 8.634 8.634 0 0 0 2.494-.684 8.735 8.735 0 0 1-2.164 2.245z"/>
</svg>
