<svg xmlns="http://www.w3.org/2000/svg" width="13" height="17" viewBox="0 0 13 17">
    <g fill="none" fill-rule="evenodd" stroke="#000">
        <path stroke-width="1.2" d="M11.868 13.588l-1.11-2.1c-.302-.572-1.03-.8-1.624-.509l-1.222.601a.302.302 0 0 1-.394-.123L4.782 6.282a.278.278 0 0 1 .127-.38l1.223-.6c.286-.141.5-.382.599-.677a1.12 1.12 0 0 0-.072-.89L5.547 1.633c-.3-.57-1.03-.797-1.623-.506l-.947.465A3.514 3.514 0 0 0 1.18 3.623c-.3.884-.221 1.829.22 2.66l4.128 7.811c.519.982 1.46 1.654 2.58 1.849a3.683 3.683 0 0 0 2.287-.323l.354-.174.594-.292c.287-.141.499-.38.6-.678a1.126 1.126 0 0 0-.074-.888z"/>
        <path stroke-linecap="round" stroke-linejoin="round" stroke-width=".936" d="M5 7l3 5"/>
    </g>
</svg>
