<svg xmlns="http://www.w3.org/2000/svg" width="17" height="13" viewBox="0 0 17 13">
    <path fill="#000" fill-rule="nonzero" d="M14.167 0H2.833C1.271 0 0 1.296 0 2.889v7.222C0 11.704 1.271 13 2.833 13h11.334C15.729 13 17 11.704 17 10.111V2.89C17 1.296 15.729 0 14.167 0zm1.416 10.111c0 .795-.637 1.445-1.416 1.445H2.833c-.779 0-1.416-.65-1.416-1.445V4.652l5.516 3.937c.44.314 1.003.47 1.567.47.564 0 1.127-.156 1.567-.47l5.516-3.937v5.46zM9.255 7.406c-.395.282-1.115.282-1.51 0L1.418 2.889c0-.795.637-1.445 1.416-1.445h11.334c.779 0 1.416.65 1.416 1.445L9.255 7.406z"/>
</svg>
