<?xml version="1.0" encoding="UTF-8"?>
<svg width="16px" height="13px" viewBox="0 0 16 13" version="1.1" xmlns="http://www.w3.org/2000/svg" xmlns:xlink="http://www.w3.org/1999/xlink">
    <!-- Generator: Sketch 53 (72520) - https://sketchapp.com -->
    <title>Group 2</title>
    <desc>Created with Sketch.</desc>
    <g id="Page-1" stroke="none" stroke-width="1" fill="none" fill-rule="evenodd">
        <g id="Filter-Pop-UP-" transform="translate(-287.000000, -18.000000)" fill="#FFFFFF">
            <g id="Group-2" transform="translate(287.000000, 18.000000)">
                <path d="M1,0 L15,0 C15.5522847,-1.01453063e-16 16,0.44771525 16,1 L16,1 C16,1.55228475 15.5522847,2 15,2 L1,2 C0.44771525,2 6.76353751e-17,1.55228475 0,1 L0,1 C-6.76353751e-17,0.44771525 0.44771525,1.01453063e-16 1,0 Z" id="Rectangle-4"></path>
                <path d="M1,5.5 L15,5.5 C15.5522847,5.5 16,5.94771525 16,6.5 L16,6.5 C16,7.05228475 15.5522847,7.5 15,7.5 L1,7.5 C0.44771525,7.5 6.76353751e-17,7.05228475 0,6.5 L0,6.5 C-6.76353751e-17,5.94771525 0.44771525,5.5 1,5.5 Z" id="Rectangle-4-Copy"></path>
                <path d="M1,11 L15,11 C15.5522847,11 16,11.4477153 16,12 L16,12 C16,12.5522847 15.5522847,13 15,13 L1,13 C0.44771525,13 6.76353751e-17,12.5522847 0,12 L0,12 C-6.76353751e-17,11.4477153 0.44771525,11 1,11 Z" id="Rectangle-4-Copy-2"></path>
            </g>
        </g>
    </g>
</svg>