<svg xmlns="http://www.w3.org/2000/svg" width="14" height="14" viewBox="0 0 14 14">
    <g fill="none" fill-rule="evenodd" stroke="#FFF">
        <path stroke-width="1.2" d="M1.6.6a1 1 0 0 0-1 1v3.022a1 1 0 0 0 1 1h3.022a1 1 0 0 0 1-1V1.6a1 1 0 0 0-1-1H1.6z"/>
        <path stroke-width="1.3" d="M1.6 8.428a.95.95 0 0 0-.95.95V12.4c0 .525.425.95.95.95h3.022a.95.95 0 0 0 .95-.95V9.378a.95.95 0 0 0-.95-.95H1.6zM9.378.65a.95.95 0 0 0-.95.95v3.022c0 .525.425.95.95.95H12.4a.95.95 0 0 0 .95-.95V1.6a.95.95 0 0 0-.95-.95H9.378z"/>
        <path stroke-width="1.2" d="M9.378 8.378a1 1 0 0 0-1 1V12.4a1 1 0 0 0 1 1H12.4a1 1 0 0 0 1-1V9.378a1 1 0 0 0-1-1H9.378z"/>
    </g>
</svg>
